# xmcd
#
# Track frame offsets:
#	150
#	27313
#	43445
#	63486
#	80106
#	91046
#	109917
#	128514
#	141927
#	158253
#	175200
#	200220
#	215896
#	228517
#
# Disc length: 3351 seconds
#
# Revision: 3
# Processed by: cddbd v1.5.2PL0 Copyright (c) Steve Scherf et al.
# Submitted via: EasyCDDAExtractor 2010.6.0.0
#
DISCID=cb0d150e
DTITLE=Various Artist - Emozioni In Musica-Il Mio Canto Libero
DYEAR=1997
DGENRE=Italiani
TTITLE0=Lucio Dalla - Futura 1990
TTITLE1=Aeroplanitaliani - Zitti Zitti 1992
TTITLE2=Eugenio Finardi - La Forza Dell'amore 1990
TTITLE3=Gerardina Trovato - La Mia Luna 1993
TTITLE4=Gian Pieretti - Il Vento Dell'est 1996
TTITLE5=Scialpi - No East, No West 1986
TTITLE6=Mango - Lei Verrà 1986
TTITLE7=Claudio Baglioni - Fratello Sole, Sorella Luna 1972
TTITLE8=I Giganti - La Bomba Atomica 1966
TTITLE9=Edoardo Bennato - Non Farti Cadere Le Braccia 1973
TTITLE10=Antonello Venditti - Quando Verrà Natale 1974
TTITLE11=Fiorella Mannoia - Torneranno Gli Angeli 1983
TTITLE12=Pierangelo Bertoli - Eppure Soffia 1978
TTITLE13=Lucio Battisti - Il Mio Canto Libero 1972
EXTD=YEAR: 1997
EXTT0=
EXTT1=
EXTT2=
EXTT3=
EXTT4=
EXTT5=
EXTT6=
EXTT7=
EXTT8=
EXTT9=
EXTT10=
EXTT11=
EXTT12=
EXTT13=
PLAYORDER=
